#!OML:ASF F:\VICON\USERDATA\INSTALL\rory3\rory3.ASF
:FULLY-SPECIFIED
:DEGREES
36
root 1.0831260079410492 18.124329343026567 1.5704911687574867 -4.008401431717219 0.3885295831536929 0.5303086246717243
lfemur -7.1616089891312695 -2.7482156914654126 -24.780143154288982
ltibia 27.232510350432953
lfoot -8.312956484563028 -0.7418280245962579
ltoes -11.55210357098789
rfemur -19.531029426330058 -3.926569666576908 22.72469454579012
rtibia 77.05513372717515
rfoot -0.33842027317716283 -9.756701727384364
rtoes 7.068409733302875
lowerback 11.541399126061066 1.1918061365340638 -0.657376353418518
upperback 0.2762693122509148 0.7292755872469467 0.6660242785584085
thorax -6.138388481717684 0.9721543417124315 0.8297174734089803
lowerneck -16.986398058487463 -3.286859232104162 -3.2122669961019126
upperneck 21.473316914080275 -5.05620984840002 1.730594381472677
head 9.741408767133086 -2.2259141062919148 0.308070552418076
lclavicle 2.9486400196842163e-16 4.2905267355134094e-17
lhumerus -30.885718078008374 5.803685616886364 80.59197472223639
lradius 24.887778274520326
lwrist 8.45715301344455
lhand -29.2049709303425 19.48873942313791
lfingers 7.125020000000001
lthumb -2.5330975993553317 49.466256513430395
rclavicle 2.9727761015239344e-16 5.3998132334385124e-17
rhumerus -28.512611518997264 -21.409980782283 -78.96433137528328
rradius 24.170573312317234
rwrist 4.348742389770618
rhand -17.742980918142077 22.680807808050094
rfingers 7.125020000000001
rthumb 8.394922165774858 -7.516480048290853
37
root 1.0799741763186201 18.116477800672136 2.184843622151817 -3.9608322467445256 1.0075456512473018 0.5926739430728682
lfemur -4.6991537590653545 -2.904598753897786 -25.08860158936532
ltibia 27.42183798139287
lfoot -9.077132069035503 -0.6018954915537118
ltoes -13.920758672458652
rfemur -23.067708316625918 -3.9794287548189784 22.518472786315872
rtibia 75.2503421507201
rfoot -3.7111732645786395 -9.241558104589958
rtoes 6.501467125940995
lowerback 11.678632734400637 0.7672605757100607 -0.9674477759589495
upperback 0.31402682901894485 0.07902278577166771 0.7809338060169246
thorax -6.121987361516936 0.6905861364932974 1.364218738108694
lowerneck -17.228029007624333 -3.2180444333429326 -3.180105920326104
upperneck 21.506572026811387 -4.929535491648673 1.7223558904499645
head 9.735964485422661 -2.1579714848939977 0.3108225154414057
lclavicle 2.948050386460076e-16 4.2899660166137993e-17
lhumerus -30.048416191868753 4.381285896061481 80.85961300239657
lradius 25.2166966031283
lwrist 8.041010739546152
lhand -29.201454655334935 19.98533014159677
lfingers 7.125020000000001
lthumb -2.4764822306206087 50.167817117279164
rclavicle 2.9727689163109435e-16 5.399863215974672e-17
rhumerus -29.729675497315352 -21.672436261847917 -78.65755196288009
rradius 25.02520099221913
rwrist 3.8752662075550224
rhand -17.80073793485126 22.8162189019691
rfingers 7.125020000000001
rthumb 8.368987705673355 -7.391906488321441
38
root 1.0746133937027698 18.107465847993033 2.7505627148350724 -3.720422804776975 1.5563207067729983 0.5749042860256295
lfemur -2.514265487211893 -2.9743295137081596 -25.24578533719407
ltibia 27.558952161584152
lfoot -10.550108591859928 0.05136025710068326
ltoes -16.01692032925945
rfemur -25.773116193127045 -3.701040966648006 22.27186191392064
rtibia 70.69776443197107
rfoot -6.350670874811846 -9.069954882490377
rtoes 5.803084981617824
lowerback 11.821883057084705 0.3682231696988895 -1.3960179840428262
upperback 0.2808609442763292 -0.5273905493804121 0.9272773697131426
thorax -6.126006430208722 0.39389185494329104 1.9600098776049266
lowerneck -17.32022738195248 -3.087572578162183 -3.061702343701243
upperneck 21.633016185588822 -4.740148280446995 1.6199275952564762
head 9.756179023693237 -2.076954263585283 0.29505255796264895
lclavicle 2.9485524718388676e-16 4.29090045438696e-17
lhumerus -29.34351392135312 2.957131881966438 81.00638286906695
lradius 25.629444932658018
lwrist 7.534483859669331
lhand -29.234793013338553 20.013325181469412
lfingers 7.125020000000001
lthumb -2.533956622997184 50.10267595473583
rclavicle 2.9726381163193635e-16 5.399185268933094e-17
rhumerus -31.010628205229793 -21.07818872028453 -78.53583132719767
rradius 26.483248886648422
rwrist 2.891189408518113
rhand -17.793171720363997 22.839460861704293
rfingers 7.125020000000001
rthumb 8.350993582645334 -7.331910610409424
39
root 1.0603989995218026 18.089797563575537 3.1656741701514814 -3.285172919755097 2.0512787849574163 0.9795467919209124
lfemur -0.1550312622799943 -2.9610708071551057 -25.620182410732042
ltibia 26.813387985011275
lfoot -12.273425335531183 -0.5334181718669568
ltoes -17.394172473133217
rfemur -27.336977288253003 -3.029746830996011 21.935635584024784
rtibia 63.23677029161598
rfoot -7.629745875902156 -9.79512643286284
rtoes 4.56279348483049
lowerback 11.917979516975407 -0.00022731811895471132 -1.9450648632901488
upperback 0.21072288717458165 -1.128900542668738 1.0627995048439383
thorax -6.114397115709341 0.11913328579520904 2.6028091298341427
lowerneck -17.332086015215122 -2.9940880700675563 -2.9750140438746793
upperneck 21.670315384661848 -4.547993617806296 1.5085061220466693
head 9.78873239787764 -1.9965042037926524 0.3024427221693836
lclavicle 2.948535644260185e-16 4.277993628983106e-17
lhumerus -28.809171546959647 1.8576047888281246 80.97605231341564
lradius 26.12730174055208
lwrist 7.027232329650436
lhand -29.34170215904498 19.850836639358377
lfingers 7.125020000000001
lthumb -2.6046973658380708 50.03463005990802
rclavicle 2.972565529968348e-16 5.398598205870132e-17
rhumerus -32.24083302562213 -20.20002076153379 -78.57020458199565
rradius 28.089486728577707
rwrist 2.209676511908024
rhand -17.731663805417284 22.837554974814285
rfingers 7.125020000000001
rthumb 8.438863711489436 -7.106758229832595
40
root 1.037440094946772 18.062938606918106 3.4901952424246288 -2.655598488904903 2.5231725441713264 1.3355681147798677
lfemur 2.6847668142732823 -2.731533768234343 -25.962012983555866
ltibia 24.70404315190934
lfoot -12.432498422004464 -0.932361325745994
ltoes -16.318304749405563
rfemur -28.037507520901023 -2.0205181788764 21.40435599631795
rtibia 52.84382439813374
rfoot -7.222229521359261 -11.183470614870762
rtoes 3.173798062807507
lowerback 11.8657788225796 -0.2992270077672482 -2.469238383069696
upperback 0.15433702930344656 -1.6559565882831755 1.1707992179302913
thorax -6.046559014374058 -0.12740869184424122 3.161814271766618
lowerneck -17.18359640559009 -2.9023509294328154 -2.880170172073668
upperneck 21.43012900669413 -4.357275367797119 1.4079018724213286
head 9.74074499652401 -1.9367432500386874 0.3432043242263908
lclavicle 2.9489061546074203e-16 4.2840518467857915e-17
lhumerus -28.526877539592284 1.079803067949718 80.84397275640676
lradius 26.693135577471583
lwrist 6.643096915190144
lhand -29.422886096279132 19.718037692816175
lfingers 7.125020000000001
lthumb -2.6974823569902933 49.902973202561924
rclavicle 2.9725339803595745e-16 5.39844178884101e-17
rhumerus -33.37319586477125 -19.700992885556726 -78.52715816922257
rradius 28.97397030063539
rwrist 2.0887848853320667
rhand -17.615964865710385 22.81179118741174
rfingers 7.125020000000001
rthumb 8.587267762950303 -6.966692073093995
41
root 1.010416553432834 18.040087593599484 3.9363494335434233 -1.963804656027503 3.009819268672876 1.6162839629707122
lfemur 5.793064727388852 -2.343956707406218 -25.969018139540207
ltibia 21.423648521771224
lfoot -12.200323211103635 -1.450585004187194
ltoes -14.170555200679942
rfemur -28.13857477933681 -0.40773760555011807 20.57332997833386
rtibia 40.29664117934971
rfoot -5.933085486780944 -12.877065566074101
rtoes 2.4070727421545546
lowerback 11.616390568013818 -0.5411224508683954 -2.950248956374865
upperback 0.09831531632105858 -2.0383959632887487 1.2774652020591484
thorax -5.93287500907454 -0.3502899583541965 3.6434462878224947
lowerneck -17.045240744439717 -2.861847597260585 -2.8104564431825625
upperneck 21.219799070895906 -4.317329780568697 1.4734216028407756
head 9.686789484577274 -1.9371916135810432 0.3828012814857358
lclavicle 2.9486781550673816e-16 4.289627962247732e-17
lhumerus -28.462896954451658 0.39038587414415726 80.69243899095055
lradius 27.31013863524783
lwrist 6.4250489816872225
lhand -29.447248637829546 19.691884454015117
lfingers 7.125020000000001
lthumb -2.76977976489267 49.769976191093264
rclavicle 2.972312789053254e-16 5.396853685720597e-17
rhumerus -34.21640696021735 -19.78387713584148 -78.10907630940844
rradius 28.872965141161202
rwrist 2.416861420656267
rhand -17.56728896885533 22.707490403666107
rfingers 7.125020000000001
rthumb 8.69220894596039 -6.914123045093444
